<svg width="23" height="27" viewBox="0 0 23 27" fill="none" xmlns="http://www.w3.org/2000/svg">
<path d="M6.56034 2.14773C6.56034 0.962184 7.35162 0 8.32658 0H13.8776C14.8526 0 15.6439 0.962184 15.6439 2.14773V4.9091H20.438C21.4129 4.9091 22.2042 5.87129 22.2042 7.05684V24.8523C22.2042 25.422 22.0181 25.9682 21.6869 26.371C21.3557 26.7738 20.9064 27.0001 20.438 27.0001H1.76624C1.29781 27.0001 0.848556 26.7738 0.517321 26.371C0.186086 25.9682 0 25.422 0 24.8523V7.05684C0 5.87129 0.791278 4.9091 1.76624 4.9091H6.56034V2.14773ZM1.51392 14.715V24.8523C1.51392 25.0217 1.62696 25.1592 1.76624 25.1592H20.438C20.5049 25.1592 20.5691 25.1268 20.6164 25.0693C20.6637 25.0118 20.6903 24.9337 20.6903 24.8523V14.715C19.9158 15.5166 18.9318 15.9561 17.9148 15.9546H4.28945C3.27247 15.9561 2.28837 15.5166 1.51392 14.715ZM20.6903 10.7387V7.05684C20.6903 6.97546 20.6637 6.89742 20.6164 6.83988C20.5691 6.78234 20.5049 6.75002 20.438 6.75002H1.76624C1.69933 6.75002 1.63515 6.78234 1.58783 6.83988C1.54051 6.89742 1.51392 6.97546 1.51392 7.05684V10.7387C1.51392 11.6338 1.80634 12.4922 2.32686 13.1252C2.84737 13.7581 3.55334 14.1137 4.28945 14.1137H17.9148C18.6509 14.1137 19.3569 13.7581 19.8774 13.1252C20.3979 12.4922 20.6903 11.6338 20.6903 10.7387ZM14.13 2.14773C14.13 2.06636 14.1034 1.98832 14.0561 1.93078C14.0087 1.87324 13.9446 1.84091 13.8776 1.84091H8.32658C8.25966 1.84091 8.19548 1.87324 8.14816 1.93078C8.10084 1.98832 8.07426 2.06636 8.07426 2.14773V4.9091H14.13V2.14773Z" fill="white"/>
</svg>
