<svg width="364" height="224" viewBox="0 0 364 224" fill="none" xmlns="http://www.w3.org/2000/svg">
<path d="M267.101 1C286.446 1 302.13 21.5942 302.13 46.9984C302.13 63.3562 295.628 77.7195 285.831 85.8747" stroke="#7EE787" stroke-width="2" stroke-linecap="round" stroke-linejoin="round"/>
<path d="M232.067 46.9984C232.067 21.5942 247.752 1 267.099 1" stroke="#7EE787" stroke-width="2" stroke-linecap="round" stroke-linejoin="round"/>
<path d="M291.723 14.532C305.514 32.6405 305.514 62.0021 291.723 80.1106C280.689 94.6002 262.8 94.6002 251.766 80.1106C242.939 68.5207 242.939 49.7298 251.766 38.1399C258.827 28.869 270.276 28.869 277.337 38.1399C282.988 45.5601 282.988 57.5833 277.337 65.0018" stroke="#7EE787" stroke-width="2" stroke-linecap="round" stroke-linejoin="round"/>
<path d="M323.936 67.8573C327.647 65.4731 331.724 64.2369 335.856 64.2437C350.845 64.2437 363 80.2033 363 99.8871C363 119.569 350.847 135.529 335.856 135.529C326.422 135.529 318.114 129.212 313.249 119.625" stroke="#7EE787" stroke-width="2" stroke-linecap="round" stroke-linejoin="round"/>
<path d="M302.464 46.485C304 45.878 305.63 45.5535 307.318 45.5535C316.611 45.5535 324.146 55.4454 324.146 67.6475" stroke="#7EE787" stroke-width="2" stroke-linecap="round" stroke-linejoin="round"/>
<path d="M354.688 125.372C344.196 139.146 327.188 139.146 316.698 125.372C308.308 114.356 308.308 96.4879 316.698 85.4681C323.412 76.6533 334.297 76.6533 341.013 85.4681C346.383 92.5199 346.383 103.957 341.013 111.009C339.991 112.351 338.778 113.415 337.443 114.141C336.108 114.867 334.677 115.241 333.232 115.241C331.787 115.241 330.356 114.867 329.021 114.141C327.686 113.415 326.473 112.351 325.451 111.009" stroke="#7EE787" stroke-width="2" stroke-linecap="round" stroke-linejoin="round"/>
<path d="M312.783 119.026C306.277 136.771 292.451 149.019 276.449 149.019C262.303 149.019 249.858 139.45 242.668 124.974" stroke="#7EE787" stroke-width="2" stroke-linecap="round" stroke-linejoin="round"/>
<path d="M242.126 124.998C236.903 136.809 227.166 144.752 216.015 144.752C203.986 144.752 193.603 135.51 188.757 122.141" stroke="#7EE787" stroke-width="2" stroke-linecap="round" stroke-linejoin="round"/>
<path d="M237.308 132.982C225.431 148.577 206.175 148.577 194.298 132.982C184.796 120.506 184.796 100.277 194.298 87.8014C201.899 77.8218 214.225 77.8218 221.826 87.8014C227.907 95.7864 227.907 108.732 221.826 116.717C219.489 119.784 216.321 121.507 213.017 121.507C209.713 121.507 206.545 119.784 204.208 116.717" stroke="#7EE787" stroke-width="2" stroke-linecap="round" stroke-linejoin="round"/>
<path d="M182.711 67.1021C187.952 51.3056 199.949 40.263 213.91 40.263C220.205 40.25 226.378 42.5407 231.736 46.8781" stroke="#7EE787" stroke-width="2" stroke-linecap="round" stroke-linejoin="round"/>
<path d="M115.631 105.833H138.241C145.787 105.833 151.903 97.8002 151.903 87.8925C151.903 77.9849 145.787 69.9542 138.241 69.9542H115.663C108.119 69.9542 102.002 61.9217 102.002 52.0141V51.3878C102.002 41.4802 108.119 33.4495 115.665 33.4495H185.288" stroke="#7EE787" stroke-width="2" stroke-linecap="round" stroke-linejoin="round"/>
<path d="M15.8548 105.832H87.0225" stroke="#7EE787" stroke-width="2" stroke-linecap="round" stroke-linejoin="round"/>
<path d="M73.3929 178.461H98.6643C106.302 178.461 112.492 170.332 112.492 160.303C112.492 150.276 106.302 142.148 98.6643 142.148H73.9887" stroke="#7EE787" stroke-width="2" stroke-linecap="round" stroke-linejoin="round"/>
<path d="M114.202 214.773H180.44C188.122 214.773 194.347 206.598 194.347 196.512C194.347 186.427 188.122 178.251 180.44 178.251H158.268C151.158 178.251 145.394 170.683 145.394 161.346C145.394 152.01 151.158 144.442 158.266 144.442H215.965" stroke="#7EE787" stroke-width="2" stroke-linecap="round" stroke-linejoin="round"/>
<path d="M71.485 178.461C63.8485 178.461 57.6563 186.59 57.6563 196.617C57.6563 206.646 63.8485 214.773 71.4837 214.773H88.611" stroke="#7EE787" stroke-width="2" stroke-linecap="round" stroke-linejoin="round"/>
<path d="M15.6958 142.146H37.511" stroke="#7EE787" stroke-width="2" stroke-linecap="round" stroke-linejoin="round"/>
<path d="M14.8287 106.252C7.19094 106.252 1 114.38 1 124.409C1 134.436 7.19094 142.565 14.8287 142.565H36.644" stroke="#7EE787" stroke-width="2" stroke-linecap="round" stroke-linejoin="round"/>
<path d="M56.0771 137.62L63.926 147.579" stroke="#7EE787" stroke-width="2" stroke-linecap="round" stroke-linejoin="round"/>
<path d="M45.0567 137.62L52.9056 147.579" stroke="#7EE787" stroke-width="2" stroke-linecap="round" stroke-linejoin="round"/>
<path d="M100.662 113.798V98.7684" stroke="#7EE787" stroke-width="2" stroke-linecap="round" stroke-linejoin="round"/>
<path d="M106.383 106.287L94.9261 106.288" stroke="#7EE787" stroke-width="2" stroke-linecap="round" stroke-linejoin="round"/>
<path d="M100.662 222.321V207.291" stroke="#7EE787" stroke-width="2" stroke-linecap="round" stroke-linejoin="round"/>
<path d="M106.383 214.81H94.9261" stroke="#7EE787" stroke-width="2" stroke-linecap="round" stroke-linejoin="round"/>
</svg>
