<svg width="88" height="88" viewBox="0 0 88 88" fill="none" xmlns="http://www.w3.org/2000/svg">
<g filter="url(#filter0_f_0_460)">
<rect x="28" y="28" width="32" height="32" rx="16" fill="#57D364"/>
</g>
<path d="M58.2195 52.3675C58.0487 51.4989 57.7641 50.6303 57.4225 49.8196C56.17 46.8085 53.8928 44.3185 51.1032 42.8708C51.9003 41.6548 52.3557 40.2071 52.3557 38.6437C52.3557 34.4165 48.9968 31 44.8409 31C40.685 31 37.3261 34.4165 37.3261 38.6437C37.3261 40.2071 37.7815 41.6548 38.5786 42.8708C34.8781 44.7817 32.2593 48.2561 31.4053 52.3096C31.1776 53.4677 31.4623 54.6258 32.1454 55.5523C32.8855 56.4788 33.9672 57 35.1058 57H54.5191C55.6577 57 56.7393 56.4788 57.4794 55.5523C58.2195 54.6837 58.5042 53.5256 58.2195 52.3675ZM44.784 33.4321C47.6305 33.4321 49.9077 35.8062 49.9077 38.6437C49.9077 41.4811 47.5736 43.8552 44.784 43.8552C41.9374 43.8552 39.6602 41.4811 39.6602 38.6437C39.6602 35.8062 41.9944 33.4321 44.784 33.4321ZM55.6007 54.1047C55.3161 54.4521 54.9176 54.6258 54.5191 54.6258H35.1058C34.6504 54.6258 34.2518 54.4521 34.0241 54.1047C33.7395 53.7572 33.6256 53.294 33.7395 52.8886C34.4796 49.3563 36.8706 46.3452 40.1157 44.7817C40.1726 44.7817 40.1726 44.7238 40.2295 44.7238C41.482 45.7082 43.0761 46.3452 44.784 46.3452C46.4919 46.3452 48.0859 45.7661 49.3953 44.7238C49.4523 44.7238 49.4523 44.7817 49.5092 44.7817C52.0711 45.9978 54.1205 48.0824 55.2022 50.7461C55.4869 51.441 55.7146 52.1359 55.8854 52.8886C55.9992 53.2361 55.8854 53.7572 55.6007 54.1047Z" fill="#D1E8D3"/>
<defs>
<filter id="filter0_f_0_460" x="0" y="0" width="88" height="88" filterUnits="userSpaceOnUse" color-interpolation-filters="sRGB">
<feFlood flood-opacity="0" result="BackgroundImageFix"/>
<feBlend mode="normal" in="SourceGraphic" in2="BackgroundImageFix" result="shape"/>
<feGaussianBlur stdDeviation="14" result="effect1_foregroundBlur_0_460"/>
</filter>
</defs>
</svg>
