<svg width="353" height="125" viewBox="0 0 353 125" fill="none" xmlns="http://www.w3.org/2000/svg">
<path fill-rule="evenodd" clip-rule="evenodd" d="M192.309 108.691H141.049C124.064 108.691 110.293 91.8972 110.293 71.1847C110.293 50.4723 124.064 33.6788 141.049 33.6788H192.309C209.294 33.6788 223.065 50.4723 223.065 71.1847C223.065 91.8972 209.294 108.691 192.309 108.691Z" fill="#F9F7FC"/>
<path fill-rule="evenodd" clip-rule="evenodd" d="M278.277 31.6271L276.504 37.5454C276.441 37.7543 276.342 37.9441 276.214 38.1015C276.087 38.259 275.933 38.3805 275.764 38.4577L270.973 40.6469C269.884 41.1459 269.884 43.0488 270.973 43.5478L275.764 45.737C276.107 45.8946 276.377 46.2268 276.504 46.6494L278.276 52.5692C278.681 53.9163 280.221 53.9163 280.624 52.5692L282.397 46.6494C282.524 46.2284 282.794 45.8946 283.137 45.7385L287.928 43.5478C289.018 43.0488 289.018 41.1459 287.928 40.6484L283.137 38.4577C282.968 38.3807 282.814 38.2593 282.686 38.1018C282.559 37.9443 282.46 37.7544 282.397 37.5454L280.625 31.6255C280.22 30.2799 278.68 30.2814 278.277 31.6271Z" stroke="#C194FC" stroke-width="2" stroke-linecap="round" stroke-linejoin="round"/>
<path fill-rule="evenodd" clip-rule="evenodd" d="M261.481 3.82714C261.481 4.84216 261.155 5.81561 260.574 6.53333C259.993 7.25106 259.205 7.65428 258.383 7.65428C257.562 7.65428 256.774 7.25106 256.193 6.53333C255.612 5.81561 255.285 4.84216 255.285 3.82714C255.285 2.81212 255.612 1.83867 256.193 1.12094C256.774 0.403215 257.562 0 258.383 0C259.205 0 259.993 0.403215 260.574 1.12094C261.155 1.83867 261.481 2.81212 261.481 3.82714Z" fill="#C69AFD"/>
<path fill-rule="evenodd" clip-rule="evenodd" d="M32.6777 109.364L31.4954 113.311C31.4533 113.45 31.3875 113.576 31.3024 113.681C31.2173 113.786 31.1149 113.867 31.0022 113.919L27.8074 115.381C27.0825 115.711 27.0825 116.98 27.8074 117.311L31.0022 118.771C31.2302 118.877 31.4112 119.099 31.4954 119.382L32.6777 123.327C32.7369 123.525 32.8436 123.695 32.9834 123.815C33.1231 123.935 33.2894 123.999 33.4596 123.999C33.6299 123.999 33.7961 123.935 33.9359 123.815C34.0757 123.695 34.1824 123.525 34.2416 123.327L35.4239 119.382C35.4652 119.242 35.5308 119.115 35.6159 119.01C35.7011 118.904 35.8039 118.823 35.9171 118.771L39.1119 117.311C39.8368 116.98 39.8368 115.711 39.1119 115.381L35.9171 113.919C35.8043 113.867 35.7019 113.786 35.6167 113.681C35.5316 113.576 35.4658 113.45 35.4239 113.311L34.2416 109.363C34.1824 109.166 34.0757 108.995 33.9359 108.875C33.7961 108.755 33.6299 108.691 33.4596 108.691C33.2894 108.691 33.1231 108.755 32.9834 108.875C32.8436 108.995 32.7369 109.167 32.6777 109.364Z" stroke="#C194FC" stroke-width="2" stroke-linecap="round" stroke-linejoin="round"/>
<path fill-rule="evenodd" clip-rule="evenodd" d="M234.218 71.95C234.218 75.198 233.173 78.3131 231.314 80.6098C229.455 82.9065 226.933 84.1968 224.304 84.1968C221.675 84.1968 219.153 82.9065 217.294 80.6098C215.435 78.3131 214.39 75.198 214.39 71.95C214.39 68.7019 215.435 65.5869 217.294 63.2901C219.153 60.9934 221.675 59.7031 224.304 59.7031C226.933 59.7031 229.455 60.9934 231.314 63.2901C233.173 65.5869 234.218 68.7019 234.218 71.95Z" stroke="#C194FC" stroke-width="2" stroke-linecap="round" stroke-linejoin="round"/>
<path d="M55.7661 71.1848H81.7904" stroke="#C194FC" stroke-width="2" stroke-linecap="round"/>
<path fill-rule="evenodd" clip-rule="evenodd" d="M79.3119 52.8145C79.3118 53.1162 79.2636 53.4149 79.1701 53.6935C79.0766 53.9722 78.9396 54.2253 78.7668 54.4386C78.5941 54.6518 78.3891 54.8209 78.1634 54.9362C77.9378 55.0516 77.696 55.1109 77.4518 55.1108C77.2076 55.1107 76.9658 55.0512 76.7402 54.9357C76.5147 54.8201 76.3097 54.6509 76.1371 54.4375C75.9645 54.2241 75.8276 53.9708 75.7342 53.6921C75.6409 53.4134 75.5928 53.1147 75.5929 52.813C75.5931 52.2038 75.7892 51.6196 76.138 51.189C76.4868 50.7583 76.9599 50.5165 77.453 50.5167C77.9462 50.5169 78.4191 50.7591 78.7677 51.19C79.1163 51.621 79.3121 52.2053 79.3119 52.8145Z" fill="#C69AFD"/>
<path fill-rule="evenodd" clip-rule="evenodd" d="M6.19624 95.6786C6.19624 96.6936 5.86983 97.667 5.28882 98.3848C4.70781 99.1025 3.91979 99.5057 3.09812 99.5057C2.27645 99.5057 1.48843 99.1025 0.907419 98.3848C0.326408 97.667 0 96.6936 0 95.6786C0 94.6635 0.326408 93.6901 0.907419 92.9724C1.48843 92.2546 2.27645 91.8514 3.09812 91.8514C3.91979 91.8514 4.70781 92.2546 5.28882 92.9724C5.86983 93.6901 6.19624 94.6635 6.19624 95.6786Z" fill="#C69AFD"/>
<path d="M191.464 113.283V102.567" stroke="#C194FC" stroke-width="2" stroke-linecap="round" stroke-linejoin="round"/>
<path d="M195.801 107.924L187.126 107.927" stroke="#C194FC" stroke-width="2" stroke-linecap="round" stroke-linejoin="round"/>
<path d="M132.6 52.8144H85.5081" stroke="#C194FC" stroke-width="2" stroke-linecap="round" stroke-linejoin="round"/>
<path d="M351.946 109.456H339.554" stroke="#C194FC" stroke-width="2" stroke-linecap="round" stroke-linejoin="round"/>
<path d="M322.205 109.456H278.831" stroke="#C194FC" stroke-width="2" stroke-linecap="round" stroke-linejoin="round"/>
</svg>
