<svg width="405" height="325" viewBox="0 0 405 325" fill="none" xmlns="http://www.w3.org/2000/svg">
<path d="M149.433 85.2809H73.9978C68.6986 85.2809 63.6164 87.5144 59.8693 91.49C56.1222 95.4656 54.0171 100.858 54.0171 106.48C54.0171 118.187 62.962 127.677 73.9998 127.677H105.964C117 127.677 125.947 137.165 125.947 148.874C125.947 160.581 117 170.073 105.964 170.073H36.0347C25.001 170.073 16.056 179.561 16.056 191.27C16.056 202.979 25.001 212.469 36.0347 212.469H88.5449" stroke="#939AFF" stroke-width="2" stroke-linecap="round" stroke-linejoin="round"/>
<path d="M214.979 85.2809H231.96C242.994 85.2809 251.941 94.7691 251.941 106.48C251.941 118.187 242.994 127.677 231.958 127.677H183.886C181.263 127.677 178.665 128.225 176.241 129.29C173.817 130.355 171.614 131.916 169.759 133.885C167.904 135.853 166.432 138.19 165.428 140.762C164.424 143.334 163.907 146.09 163.908 148.874C163.908 160.581 172.851 170.073 183.886 170.073H201.869C212.902 170.073 221.847 179.561 221.847 191.27C221.847 202.979 212.902 212.469 201.869 212.469H134.295" stroke="#939AFF" stroke-width="2" stroke-linecap="round" stroke-linejoin="round"/>
<path fill-rule="evenodd" clip-rule="evenodd" d="M201.708 86.5285C201.708 98.2351 192.766 107.728 181.728 107.728C170.694 107.728 161.749 98.2351 161.749 86.5285C161.749 74.822 170.694 65.3294 181.728 65.3294C192.764 65.3294 201.711 74.822 201.711 86.5307L201.708 86.5285Z" stroke="#939AFF" stroke-width="2" stroke-linecap="round" stroke-linejoin="round"/>
<path d="M57.2365 148.045H77.2172" stroke="#939AFF" stroke-width="2" stroke-linecap="round" stroke-linejoin="round"/>
<path fill-rule="evenodd" clip-rule="evenodd" d="M89.2048 148.045C89.2048 148.608 88.9941 149.147 88.6192 149.545C88.2443 149.943 87.7357 150.166 87.2055 150.166C86.6752 150.166 86.1667 149.943 85.7918 149.545C85.4168 149.147 85.2062 148.608 85.2062 148.045C85.2062 147.483 85.4168 146.943 85.7918 146.545C86.1667 146.147 86.6752 145.924 87.2055 145.924C87.7357 145.924 88.2443 146.147 88.6192 146.545C88.9941 146.943 89.2048 147.483 89.2048 148.045Z" stroke="#939AFF" stroke-width="2" stroke-linecap="round" stroke-linejoin="round"/>
<path fill-rule="evenodd" clip-rule="evenodd" d="M12.0451 107.145C12.0645 107.854 11.9498 108.559 11.7078 109.22C11.4657 109.881 11.1011 110.483 10.6358 110.992C10.1704 111.5 9.61353 111.905 8.99824 112.181C8.38295 112.457 7.72169 112.6 7.05359 112.6C6.38549 112.6 5.72411 112.458 5.10861 112.183C4.49311 111.907 3.93597 111.503 3.47018 110.995C3.00439 110.487 2.6394 109.885 2.39681 109.224C2.15422 108.564 2.03896 107.858 2.05784 107.15C2.0946 105.771 2.63656 104.461 3.5686 103.5C4.50065 102.538 5.74935 102 7.04948 101.999C8.3496 101.999 9.59872 102.536 10.5315 103.497C11.4643 104.458 12.0073 105.766 12.0451 107.145Z" stroke="#939AFF" stroke-width="2" stroke-linecap="round" stroke-linejoin="round"/>
<path d="M111.319 219.626V202.719" stroke="#939AFF" stroke-width="2" stroke-linecap="round" stroke-linejoin="round"/>
<path d="M119.284 211.176L103.335 211.178" stroke="#939AFF" stroke-width="2" stroke-linecap="round" stroke-linejoin="round"/>
<path d="M336.203 73.5373V57.1259" stroke="#939AFF" stroke-width="2" stroke-linecap="round" stroke-linejoin="round"/>
<path d="M343.937 65.3337L328.455 65.3356" stroke="#939AFF" stroke-width="2" stroke-linecap="round" stroke-linejoin="round"/>
<path fill-rule="evenodd" clip-rule="evenodd" d="M402.064 30.9077C402.064 33.0898 401.247 35.1825 399.793 36.7255C398.339 38.2684 396.366 39.1352 394.31 39.1352C392.253 39.1352 390.28 38.2684 388.826 36.7255C387.372 35.1825 386.555 33.0898 386.555 30.9077C386.555 28.7257 387.372 26.633 388.826 25.09C390.28 23.547 392.253 22.6802 394.31 22.6802C396.366 22.6802 398.339 23.547 399.793 25.09C401.247 26.633 402.064 28.7257 402.064 30.9077Z" stroke="#939AFF" stroke-width="2" stroke-linecap="round" stroke-linejoin="round"/>
<path fill-rule="evenodd" clip-rule="evenodd" d="M268.04 3.8084L264.71 13.3556C264.473 14.0383 263.965 14.577 263.322 14.83L254.323 18.3636C252.278 19.1663 252.278 22.2352 254.323 23.0379L263.322 26.5737C263.965 26.8245 264.473 27.3633 264.71 28.0438L268.04 37.591C268.799 39.7634 271.691 39.7634 272.448 37.591L275.778 28.0438C275.896 27.707 276.081 27.4011 276.32 27.1473C276.56 26.8936 276.848 26.6978 277.166 26.5737L286.164 23.0401C288.212 22.2352 288.212 19.1663 286.164 18.3636L277.166 14.83C276.848 14.7049 276.56 14.5083 276.32 14.2538C276.081 13.9993 275.896 13.6929 275.778 13.3556L272.448 3.8084C271.691 1.6381 268.799 1.6381 268.04 3.8084Z" stroke="#939AFF" stroke-width="2" stroke-linecap="round" stroke-linejoin="round"/>
<path fill-rule="evenodd" clip-rule="evenodd" d="M159.545 287.071L156.215 296.62C156.097 296.957 155.912 297.263 155.673 297.518C155.433 297.772 155.145 297.968 154.827 298.093L145.829 301.626C143.783 302.429 143.783 305.498 145.829 306.301L154.827 309.836C155.471 310.087 155.978 310.626 156.215 311.306L159.545 320.856C160.306 323.026 163.196 323.026 163.953 320.856L167.283 311.306C167.401 310.97 167.586 310.664 167.825 310.41C168.065 310.156 168.353 309.96 168.671 309.836L177.67 306.303C179.717 305.498 179.717 302.429 177.67 301.626L168.671 298.093C168.354 297.968 168.065 297.771 167.826 297.517C167.586 297.263 167.401 296.957 167.283 296.62L163.953 287.071C163.196 284.901 160.304 284.901 159.545 287.071Z" stroke="#939AFF" stroke-width="2" stroke-linecap="round" stroke-linejoin="round"/>
</svg>
