<svg width="43" height="43" viewBox="0 0 43 43" fill="none" xmlns="http://www.w3.org/2000/svg">
<path d="M39.817 0H3.17461C1.41934 0 0 1.37958 0 3.08524V39.7152C0 41.4208 1.41934 42.8088 3.17461 42.8088H39.817C41.5723 42.8088 43 41.4208 43 39.7235V3.08524C43 1.37958 41.5723 0 39.817 0ZM12.7572 36.4794H6.37441V16.0449H12.7572V36.4794ZM9.56582 13.2607C7.5166 13.2607 5.86211 11.6135 5.86211 9.58181C5.86211 7.55006 7.5166 5.90293 9.56582 5.90293C11.6066 5.90293 13.2611 7.55006 13.2611 9.58181C13.2611 11.6052 11.6066 13.2607 9.56582 13.2607ZM36.6424 36.4794H30.268V26.5465C30.268 24.1803 30.226 21.1285 26.9506 21.1285C23.6332 21.1285 23.1293 23.712 23.1293 26.3792V36.4794H16.7633V16.0449H22.8773V18.8375H22.9613C23.8096 17.2322 25.8924 15.5349 28.9914 15.5349C35.4498 15.5349 36.6424 19.7656 36.6424 25.2672V36.4794Z" fill="#939AFF"/>
</svg>
