<svg width="43" height="43" viewBox="0 0 43 43" fill="none" xmlns="http://www.w3.org/2000/svg">
<path fill-rule="evenodd" clip-rule="evenodd" d="M21.4929 0C16.3887 0.00273071 11.4519 1.86681 7.56523 5.25891C3.67854 8.65101 1.09543 13.3499 0.277765 18.5155C-0.539897 23.681 0.461204 28.9764 3.10208 33.4546C5.74296 37.9328 9.85139 41.3019 14.6928 42.9595C15.7608 43.1639 16.1631 42.4813 16.1631 41.901C16.1631 41.3206 16.1418 39.6378 16.1347 37.7981C10.1534 39.1304 8.88951 35.1955 8.88951 35.1955C7.91399 32.6403 6.50412 31.9687 6.50412 31.9687C4.55309 30.6035 6.6501 30.6291 6.6501 30.6291C8.81119 30.786 9.94692 32.9031 9.94692 32.9031C11.8623 36.2723 14.9776 35.2977 16.2023 34.7283C16.3946 33.301 16.9535 32.3301 17.5695 31.7789C12.7916 31.224 7.77157 29.3332 7.77157 20.8866C7.74196 18.696 8.53481 16.5776 9.98608 14.9696C9.76534 14.4147 9.02835 12.1735 10.1961 9.12922C10.1961 9.12922 12.0012 8.53788 16.1098 11.3887C19.6338 10.4006 23.352 10.4006 26.876 11.3887C30.981 8.53788 32.7825 9.12922 32.7825 9.12922C33.9538 12.1662 33.2169 14.4074 32.9961 14.9696C34.452 16.5778 35.2465 18.7 35.2142 20.8939C35.2142 29.3588 30.1835 31.224 25.3985 31.7679C26.1675 32.4542 26.8547 33.7938 26.8547 35.8525C26.8547 38.8019 26.8297 41.1746 26.8297 41.901C26.8297 42.4886 27.2178 43.1749 28.3072 42.9595C33.1492 41.3017 37.258 37.932 39.8988 33.453C42.5397 28.974 43.5403 23.6779 42.7217 18.5119C41.9031 13.3459 39.3187 8.64688 35.4307 5.25537C31.5427 1.86385 26.6048 0.000999848 21.5 0H21.4929Z" fill="#939AFF"/>
</svg>
