<svg width="481" height="288" viewBox="0 0 481 288" fill="none" xmlns="http://www.w3.org/2000/svg">
<path fill-rule="evenodd" clip-rule="evenodd" d="M8.58144 215.695C8.58198 216.193 8.48434 216.687 8.29411 217.148C8.10388 217.608 7.82477 218.027 7.47273 218.38C7.12069 218.733 6.70261 219.013 6.24236 219.204C5.7821 219.395 5.28869 219.494 4.79029 219.495C4.29186 219.494 3.79841 219.395 3.33815 219.204C2.87789 219.013 2.45983 218.733 2.10786 218.38C1.75588 218.027 1.4769 217.608 1.28684 217.147C1.09678 216.686 0.999366 216.192 1.00017 215.694C0.999087 214.688 1.39765 213.722 2.10822 213.01C2.81878 212.297 3.78316 211.896 4.78927 211.895C5.28776 211.895 5.78128 211.994 6.24165 212.185C6.70202 212.376 7.12022 212.656 7.47237 213.009C7.82452 213.362 8.10371 213.781 8.29401 214.242C8.48431 214.703 8.58198 215.196 8.58144 215.695Z" stroke="#B384F9" stroke-width="2" stroke-linecap="round" stroke-linejoin="round"/>
<path d="M375.314 9.17174V1.00017" stroke="#B384F9" stroke-width="2" stroke-linecap="round" stroke-linejoin="round"/>
<path d="M379.91 5.59663H371.74" stroke="#B384F9" stroke-width="2" stroke-linecap="round" stroke-linejoin="round"/>
<path fill-rule="evenodd" clip-rule="evenodd" d="M414.19 167.314C414.191 168.32 413.792 169.286 413.081 169.998C412.37 170.711 411.405 171.111 410.399 171.112C409.901 171.112 409.407 171.013 408.947 170.822C408.487 170.63 408.069 170.35 407.717 169.997C407.366 169.645 407.087 169.226 406.897 168.765C406.707 168.305 406.609 167.811 406.61 167.313C406.609 166.307 407.008 165.341 407.718 164.629C408.429 163.917 409.393 163.516 410.399 163.515C411.405 163.516 412.37 163.917 413.081 164.629C413.792 165.342 414.191 166.307 414.19 167.314Z" stroke="#B384F9" stroke-width="2" stroke-linecap="round" stroke-linejoin="round"/>
<path d="M226.286 286.416H188.938" stroke="#B384F9" stroke-width="2" stroke-linecap="round" stroke-linejoin="round"/>
<path d="M180.149 286.416H173.009" stroke="#B384F9" stroke-width="2" stroke-linecap="round" stroke-linejoin="round"/>
<path d="M259.688 187.897C259.688 174.686 270.376 163.977 283.559 163.977C296.744 163.977 307.431 174.686 307.431 187.897C307.431 196.404 302.999 203.873 296.323 208.114" stroke="#B384F9" stroke-width="2" stroke-linecap="round" stroke-linejoin="round"/>
<path d="M300.337 171.015C309.735 180.431 309.735 195.699 300.337 205.116C292.818 212.65 280.629 212.65 273.111 205.116C267.095 199.089 267.095 189.318 273.111 183.291C277.921 178.47 285.724 178.47 290.536 183.291C294.385 187.147 294.385 193.402 290.536 197.259" stroke="#B384F9" stroke-width="2" stroke-linecap="round" stroke-linejoin="round"/>
<path d="M322.288 198.744C324.816 197.504 327.595 196.861 330.41 196.864C340.626 196.864 348.907 205.163 348.907 215.399C348.907 225.635 340.626 233.934 330.41 233.934C323.983 233.934 318.322 230.65 315.007 225.664" stroke="#B384F9" stroke-width="2" stroke-linecap="round" stroke-linejoin="round"/>
<path d="M307.657 187.629C308.73 187.306 309.845 187.143 310.966 187.144C317.298 187.144 322.43 192.288 322.43 198.635" stroke="#B384F9" stroke-width="2" stroke-linecap="round" stroke-linejoin="round"/>
<path d="M343.243 228.653C336.095 235.814 324.505 235.814 317.357 228.653C311.639 222.922 311.639 213.632 317.357 207.902C321.932 203.317 329.35 203.317 333.924 207.902C337.585 211.569 337.585 217.516 333.924 221.183" stroke="#B384F9" stroke-width="2" stroke-linecap="round" stroke-linejoin="round"/>
<path d="M314.689 225.351C310.254 234.579 300.835 240.948 289.929 240.948C280.291 240.948 271.812 235.973 266.91 228.445" stroke="#B384F9" stroke-width="2" stroke-linecap="round" stroke-linejoin="round"/>
<path d="M266.542 228.458C262.983 234.599 256.348 238.731 248.749 238.731C240.552 238.731 233.476 233.924 230.174 226.97" stroke="#B384F9" stroke-width="2" stroke-linecap="round" stroke-linejoin="round"/>
<path d="M263.259 232.609C255.165 240.719 242.043 240.719 233.949 232.609C227.474 226.122 227.474 215.602 233.949 209.116C239.129 203.925 247.528 203.925 252.708 209.116C256.852 213.268 256.852 219.999 252.708 224.151C251.92 224.941 250.985 225.568 249.955 225.996C248.925 226.424 247.82 226.644 246.705 226.644C245.59 226.644 244.485 226.424 243.455 225.996C242.425 225.568 241.49 224.941 240.702 224.151C239.428 222.874 238.713 221.144 238.713 219.34C238.713 217.536 239.428 215.806 240.702 214.528" stroke="#B384F9" stroke-width="2" stroke-linecap="round" stroke-linejoin="round"/>
<path d="M226.705 196.98C230.555 189.504 238.339 184.392 247.313 184.392C251.604 184.386 255.811 185.578 259.461 187.834" stroke="#B384F9" stroke-width="2" stroke-linecap="round" stroke-linejoin="round"/>
<path d="M389.645 138.762C389.669 139.626 389.68 140.495 389.68 141.365C389.68 173.325 373.452 201.485 348.802 218.028" stroke="#B384F9" stroke-width="2" stroke-linecap="round" stroke-linejoin="round"/>
<path d="M234.399 207.138C216.693 190.333 205.649 166.552 205.649 140.187C205.649 89.2652 246.845 47.9865 297.663 47.9865C318.182 47.9865 337.133 54.7178 352.437 66.0937" stroke="#B384F9" stroke-width="2" stroke-linecap="round" stroke-linejoin="round"/>
<path d="M413.087 66.0691H431.062C437.566 66.0691 442.84 71.351 442.84 77.8698C442.84 84.3867 437.566 89.6686 431.062 89.6686H413.087C406.585 89.6686 401.311 94.9535 401.311 101.469C401.311 107.986 406.585 113.27 413.087 113.27H468.225C474.727 113.27 480 118.554 480 125.07C480 131.587 474.727 136.872 468.225 136.872H363.735C357.231 136.872 351.959 131.587 351.959 125.07C351.959 118.553 357.231 113.27 363.735 113.27" stroke="#C498FC" stroke-width="2" stroke-linecap="round" stroke-linejoin="round"/>
<path d="M374.892 113.27C381.395 113.27 386.67 107.989 386.67 101.469C386.67 94.9525 381.395 89.6696 374.892 89.6696H335.224C328.718 89.6696 323.446 84.3867 323.446 77.8689C323.446 71.352 328.719 66.0681 335.224 66.0681H389.329" stroke="#C498FC" stroke-width="2" stroke-linecap="round" stroke-linejoin="round"/>
<path d="M399.714 62.6198L392.933 69.1815" stroke="#C498FC" stroke-width="2" stroke-linecap="round" stroke-linejoin="round"/>
<path d="M409.232 62.6198L402.452 69.1815" stroke="#C498FC" stroke-width="2" stroke-linecap="round" stroke-linejoin="round"/>
<path d="M163.054 214.833H182.582C189.099 214.833 194.383 209.538 194.383 203.008C194.383 196.478 189.099 191.185 182.582 191.185H163.084C156.567 191.185 151.284 185.891 151.284 179.361V178.947C151.284 172.417 156.567 167.124 163.084 167.124H209.816" stroke="#C498FC" stroke-width="2" stroke-linecap="round" stroke-linejoin="round"/>
<path d="M89.2577 214.833H138.343" stroke="#C498FC" stroke-width="2" stroke-linecap="round" stroke-linejoin="round"/>
<path d="M248.538 238.767H138.382" stroke="#C498FC" stroke-width="2" stroke-linecap="round" stroke-linejoin="round"/>
<path d="M89.2577 214.833C82.662 214.833 77.2673 220.19 77.2673 226.8C77.2673 233.411 82.662 238.767 89.2577 238.767H108.054" stroke="#C498FC" stroke-width="2" stroke-linecap="round" stroke-linejoin="round"/>
<path d="M121.35 235.783L114.571 242.348" stroke="#C498FC" stroke-width="2" stroke-linecap="round" stroke-linejoin="round"/>
<path d="M130.868 235.783L124.089 242.348" stroke="#C498FC" stroke-width="2" stroke-linecap="round" stroke-linejoin="round"/>
<path d="M150.125 220.083V210.177" stroke="#C498FC" stroke-width="2" stroke-linecap="round" stroke-linejoin="round"/>
<path d="M155.067 215.131L145.172 215.133" stroke="#C498FC" stroke-width="2" stroke-linecap="round" stroke-linejoin="round"/>
</svg>
